<svg xmlns="http://www.w3.org/2000/svg" width="24" height="24" viewBox="0 0 24 24">
  <defs>
    <style>
      .cls-1 {
        fill: #3d6399;
      }

      .cls-2 {
        fill: #fff;
      }
    </style>
  </defs>
  <g id="レイヤー_2" data-name="レイヤー 2">
    <g id="bg">
      <g>
        <rect class="cls-1" width="24" height="24" rx="3"/>
        <g>
          <path class="cls-2" d="M6.909,14.18a1.909,1.909,0,1,0,1.352,3.261A1.909,1.909,0,0,0,6.909,14.18Z"/>
          <path class="cls-2" d="M11.3,11.7a8.793,8.793,0,0,0-2.575-1.8,8.923,8.923,0,0,0-3.042-.8h-.05a.576.576,0,0,0-.427.169A.586.586,0,0,0,5,9.726v1.342a.614.614,0,0,0,.164.428.605.605,0,0,0,.413.2,6.18,6.18,0,0,1,3.892,1.834A6.183,6.183,0,0,1,11.3,17.421a.621.621,0,0,0,.626.577h1.343a.584.584,0,0,0,.467-.209.6.6,0,0,0,.169-.477,8.917,8.917,0,0,0-.8-3.042A8.793,8.793,0,0,0,11.3,11.7Z"/>
          <path class="cls-2" d="M17.805,12.346a13.922,13.922,0,0,0-2.923-4.231,13.945,13.945,0,0,0-4.23-2.922A13.772,13.772,0,0,0,5.666,4h-.03a.594.594,0,0,0-.437.178.588.588,0,0,0-.2.458V6.057a.61.61,0,0,0,.174.433.6.6,0,0,0,.422.194A11.256,11.256,0,0,1,9.658,7.7,11.418,11.418,0,0,1,13,10a11.418,11.418,0,0,1,2.3,3.34,11.122,11.122,0,0,1,1,4.061.6.6,0,0,0,.194.423A.619.619,0,0,0,16.94,18h1.422a.586.586,0,0,0,.457-.2A.573.573,0,0,0,19,17.332,13.792,13.792,0,0,0,17.805,12.346Z"/>
        </g>
      </g>
    </g>
  </g>
</svg>
