<svg xmlns="http://www.w3.org/2000/svg" width="30" height="30" viewBox="0 0 30 30">
  <defs>
    <style>
      .cls-1 {
        fill: #fff;
        fill-rule: evenodd;
      }
    </style>
  </defs>
  <g id="レイヤー_2" data-name="レイヤー 2">
    <g id="contents">
      <path class="cls-1" d="M12,6.686a1.354,1.354,0,0,0-1.333-1.353A5.5,5.5,0,0,0,7.24,7.153a5.985,5.985,0,0,0-1.907,3.513A1.334,1.334,0,0,0,7.98,10.9,4.054,4.054,0,0,1,10.9,8,1.339,1.339,0,0,0,12,6.686Zm9.573,11.14a11.668,11.668,0,1,0-3.746,3.746l7.659,7.653a2.647,2.647,0,0,0,3.74-3.747ZM11.666,20A8.333,8.333,0,1,1,20,11.666,8.336,8.336,0,0,1,11.666,20Z"/>
    </g>
  </g>
</svg>
