<?xml version="1.0" encoding="UTF-8"?><svg id="_レイヤー_2" xmlns="http://www.w3.org/2000/svg" viewBox="0 0 70.06 70"><defs><style>.cls-1{fill:#6ea0be;}</style></defs><g id="_レイヤー_"><g><path class="cls-1" d="m27.3,70H1.21c-.67,0-1.21-.54-1.21-1.21V20.23c0-.67.54-1.21,1.21-1.21h26.09c.67,0,1.21.54,1.21,1.21v48.56c0,.67-.54,1.21-1.21,1.21Zm-24.88-2.42h23.67V21.44H2.42v46.14Z"/><path class="cls-1" d="m41.07,70H14.26c-.67,0-1.21-.54-1.21-1.21s.54-1.21,1.21-1.21h25.6V2.42H15.47v17.76c0,.67-.54,1.21-1.21,1.21s-1.21-.54-1.21-1.21V1.21c0-.67.54-1.21,1.21-1.21h26.82c.67,0,1.21.54,1.21,1.21v67.58c0,.67-.54,1.21-1.21,1.21Z"/><path class="cls-1" d="m68.85,70h-27.78c-.67,0-1.21-.54-1.21-1.21V30.38c0-.67.54-1.21,1.21-1.21h27.78c.67,0,1.21.54,1.21,1.21v38.41c0,.67-.54,1.21-1.21,1.21Zm-26.57-2.42h25.36V31.59h-25.36v35.99Z"/><path class="cls-1" d="m64.5,31.11h-9.54c-.67,0-1.21-.54-1.21-1.21v-5.8c0-.67.54-1.21,1.21-1.21h9.54c.67,0,1.21.54,1.21,1.21v5.8c0,.67-.54,1.21-1.21,1.21Zm-8.33-2.42h7.12v-3.38h-7.12v3.38Z"/><path class="cls-1" d="m62.41,42.97h-4.39c-.67,0-1.21-.54-1.21-1.21v-4.39c0-.67.54-1.21,1.21-1.21h4.39c.67,0,1.21.54,1.21,1.21v4.39c0,.67-.54,1.21-1.21,1.21Zm-3.18-2.42h1.97v-1.97h-1.97v1.97Z"/><path class="cls-1" d="m52.17,42.97h-4.39c-.67,0-1.21-.54-1.21-1.21v-4.39c0-.67.54-1.21,1.21-1.21h4.39c.67,0,1.21.54,1.21,1.21v4.39c0,.67-.54,1.21-1.21,1.21Zm-3.18-2.42h1.97v-1.97h-1.97v1.97Z"/><path class="cls-1" d="m62.41,52.83h-4.39c-.67,0-1.21-.54-1.21-1.21v-4.39c0-.67.54-1.21,1.21-1.21h4.39c.67,0,1.21.54,1.21,1.21v4.39c0,.67-.54,1.21-1.21,1.21Zm-3.18-2.42h1.97v-1.97h-1.97v1.97Z"/><path class="cls-1" d="m9.95,32.58h-4.39c-.67,0-1.21-.54-1.21-1.21v-4.39c0-.67.54-1.21,1.21-1.21h4.39c.67,0,1.21.54,1.21,1.21v4.39c0,.67-.54,1.21-1.21,1.21Zm-3.18-2.42h1.97v-1.97h-1.97v1.97Z"/><path class="cls-1" d="m9.95,42.31h-4.39c-.67,0-1.21-.54-1.21-1.21v-4.39c0-.67.54-1.21,1.21-1.21h4.39c.67,0,1.21.54,1.21,1.21v4.39c0,.67-.54,1.21-1.21,1.21Zm-3.18-2.42h1.97v-1.97h-1.97v1.97Z"/><path class="cls-1" d="m9.95,52.05h-4.39c-.67,0-1.21-.54-1.21-1.21v-4.39c0-.67.54-1.21,1.21-1.21h4.39c.67,0,1.21.54,1.21,1.21v4.39c0,.67-.54,1.21-1.21,1.21Zm-3.18-2.42h1.97v-1.97h-1.97v1.97Z"/><path class="cls-1" d="m9.95,61.79h-4.39c-.67,0-1.21-.54-1.21-1.21v-4.39c0-.67.54-1.21,1.21-1.21h4.39c.67,0,1.21.54,1.21,1.21v4.39c0,.67-.54,1.21-1.21,1.21Zm-3.18-2.42h1.97v-1.97h-1.97v1.97Z"/><path class="cls-1" d="m52.17,52.83h-4.39c-.67,0-1.21-.54-1.21-1.21v-4.39c0-.67.54-1.21,1.21-1.21h4.39c.67,0,1.21.54,1.21,1.21v4.39c0,.67-.54,1.21-1.21,1.21Zm-3.18-2.42h1.97v-1.97h-1.97v1.97Z"/><path class="cls-1" d="m62.41,62.7h-4.39c-.67,0-1.21-.54-1.21-1.21v-4.39c0-.67.54-1.21,1.21-1.21h4.39c.67,0,1.21.54,1.21,1.21v4.39c0,.67-.54,1.21-1.21,1.21Zm-3.18-2.42h1.97v-1.97h-1.97v1.97Z"/><path class="cls-1" d="m52.17,62.7h-4.39c-.67,0-1.21-.54-1.21-1.21v-4.39c0-.67.54-1.21,1.21-1.21h4.39c.67,0,1.21.54,1.21,1.21v4.39c0,.67-.54,1.21-1.21,1.21Zm-3.18-2.42h1.97v-1.97h-1.97v1.97Z"/><path class="cls-1" d="m40.79,12.45h-6.25c-.67,0-1.21-.54-1.21-1.21s.54-1.21,1.21-1.21h6.25c.67,0,1.21.54,1.21,1.21s-.54,1.21-1.21,1.21Z"/><path class="cls-1" d="m40.79,22.02h-6.25c-.67,0-1.21-.54-1.21-1.21s.54-1.21,1.21-1.21h6.25c.67,0,1.21.54,1.21,1.21s-.54,1.21-1.21,1.21Z"/><path class="cls-1" d="m40.79,31.59h-6.25c-.67,0-1.21-.54-1.21-1.21s.54-1.21,1.21-1.21h6.25c.67,0,1.21.54,1.21,1.21s-.54,1.21-1.21,1.21Z"/><path class="cls-1" d="m27.04,31.59h-12.78c-.67,0-1.21-.54-1.21-1.21s.54-1.21,1.21-1.21h12.78c.67,0,1.21.54,1.21,1.21s-.54,1.21-1.21,1.21Z"/><path class="cls-1" d="m27.04,40.83h-12.78c-.67,0-1.21-.54-1.21-1.21s.54-1.21,1.21-1.21h12.78c.67,0,1.21.54,1.21,1.21s-.54,1.21-1.21,1.21Z"/><path class="cls-1" d="m27.04,50.08h-12.78c-.67,0-1.21-.54-1.21-1.21s.54-1.21,1.21-1.21h12.78c.67,0,1.21.54,1.21,1.21s-.54,1.21-1.21,1.21Z"/><path class="cls-1" d="m27.04,59.32h-12.78c-.67,0-1.21-.54-1.21-1.21s.54-1.21,1.21-1.21h12.78c.67,0,1.21.54,1.21,1.21s-.54,1.21-1.21,1.21Z"/><path class="cls-1" d="m31.95,59.32h-4.29c-.67,0-1.21-.54-1.21-1.21s.54-1.21,1.21-1.21h4.29c.67,0,1.21.54,1.21,1.21s-.54,1.21-1.21,1.21Z"/><path class="cls-1" d="m32.11,69.29c-.67,0-1.21-.54-1.21-1.21v-9.7c0-.67.54-1.21,1.21-1.21s1.21.54,1.21,1.21v9.7c0,.67-.54,1.21-1.21,1.21Z"/></g></g></svg>