<?xml version="1.0" encoding="UTF-8"?><svg id="_レイヤー_2" xmlns="http://www.w3.org/2000/svg" viewBox="0 0 63.34 70"><defs><style>.cls-1{fill:#6ea0be;}</style></defs><g id="_レイヤー_"><g><g><path class="cls-1" d="m24.9,42.08c-.55,0-1.05-.38-1.17-.94-.14-.65.27-1.28.91-1.42l15.4-3.36c.65-.15,1.28.27,1.42.91.14.65-.27,1.28-.91,1.42l-15.4,3.36c-.09.02-.17.03-.26.03Z"/><path class="cls-1" d="m26.75,45.73c-.55,0-1.05-.38-1.17-.94-.14-.65.27-1.28.91-1.42l11.64-2.54c.65-.14,1.28.27,1.42.91.14.65-.27,1.28-.91,1.42l-11.64,2.54c-.09.02-.17.03-.26.03Z"/><path class="cls-1" d="m29.76,49.34c-.55,0-1.05-.38-1.17-.94-.14-.65.27-1.28.91-1.42l5.15-1.12c.64-.14,1.28.27,1.42.91.14.65-.27,1.28-.91,1.42l-5.15,1.12c-.09.02-.17.03-.26.03Z"/><path class="cls-1" d="m40.31,38.72c-.66,0-1.2-.54-1.2-1.2v-2.83c0-3.67,1.35-7.3,3.79-10.21,2.02-2.41,3.14-5.47,3.14-8.62,0-3.73-1.49-7.21-4.2-9.78-2.71-2.57-6.26-3.87-10.01-3.67-6.9.37-12.48,6.07-12.72,12.98-.11,3.37,1.03,6.63,3.21,9.19,2.39,2.8,3.71,6.5,3.71,10.42v.81c0,.66-.54,1.2-1.2,1.2s-1.2-.54-1.2-1.2v-.81c0-3.35-1.11-6.5-3.13-8.87-2.58-3.01-3.92-6.86-3.79-10.83C17,7.17,23.58.46,31.7.02c4.41-.23,8.59,1.3,11.78,4.33,3.19,3.03,4.95,7.11,4.95,11.51,0,3.71-1.31,7.32-3.7,10.16-2.09,2.49-3.23,5.57-3.23,8.67v2.83c0,.66-.54,1.2-1.2,1.2Z"/></g><g><path class="cls-1" d="m9.62,70c-5.31,0-9.62-4.32-9.62-9.62s4.32-9.62,9.62-9.62c.66,0,1.2.54,1.2,1.2s-.54,1.2-1.2,1.2c-3.99,0-7.23,3.24-7.23,7.23s3.24,7.23,7.23,7.23c.66,0,1.2.54,1.2,1.2s-.54,1.2-1.2,1.2Z"/><path class="cls-1" d="m62.15,70c-5.31,0-9.62-4.32-9.62-9.62s4.32-9.62,9.62-9.62c.66,0,1.2.54,1.2,1.2s-.54,1.2-1.2,1.2c-3.99,0-7.23,3.24-7.23,7.23s3.24,7.23,7.23,7.23c.66,0,1.2.54,1.2,1.2s-.54,1.2-1.2,1.2Z"/><path class="cls-1" d="m62.15,53.15H9.62c-.66,0-1.2-.54-1.2-1.2s.54-1.2,1.2-1.2h52.53c.66,0,1.2.54,1.2,1.2s-.54,1.2-1.2,1.2Z"/><path class="cls-1" d="m62.15,70H9.62c-.66,0-1.2-.54-1.2-1.2s.54-1.2,1.2-1.2h52.53c.66,0,1.2.54,1.2,1.2s-.54,1.2-1.2,1.2Z"/></g><path class="cls-1" d="m16.56,66.1c-.24,0-.49-.07-.69-.22l-2.67-1.9-2.67,1.9c-.37.26-.84.29-1.24.09-.4-.2-.65-.61-.65-1.06v-8.57c0-.66.54-1.2,1.2-1.2h6.72c.66,0,1.2.54,1.2,1.2v8.57c0,.45-.25.86-.65,1.06-.17.09-.36.13-.55.13Zm-5.52-8.57v5.06l1.47-1.05c.42-.3.97-.3,1.39,0l1.47,1.05v-5.06h-4.33Z"/><path class="cls-1" d="m46.11,61.82h-18.3c-.66,0-1.2-.54-1.2-1.2s.54-1.2,1.2-1.2h18.3c.66,0,1.2.54,1.2,1.2s-.54,1.2-1.2,1.2Z"/><path class="cls-1" d="m32.34,18.41c-.66,0-1.2-.54-1.2-1.2V6.4c0-.66.54-1.2,1.2-1.2s1.2.54,1.2,1.2v10.82c0,.66-.54,1.2-1.2,1.2Z"/><path class="cls-1" d="m32.34,23.79c-4.58,0-8.31-3.73-8.31-8.31,0-2.94,1.58-5.69,4.13-7.18.57-.33,1.3-.14,1.64.43.33.57.14,1.3-.43,1.64-1.81,1.06-2.94,3.02-2.94,5.11,0,3.26,2.65,5.92,5.92,5.92s5.92-2.65,5.92-5.92c0-2.17-1.19-4.17-3.1-5.21-.58-.31-.8-1.04-.48-1.62.31-.58,1.04-.79,1.62-.48,2.68,1.46,4.35,4.26,4.35,7.31,0,4.58-3.73,8.31-8.31,8.31Z"/></g></g></svg>