<?xml version="1.0" encoding="UTF-8"?><svg id="_レイヤー_2" xmlns="http://www.w3.org/2000/svg" viewBox="0 0 67.19 50"><defs><style>.cls-1{fill:#6ea0be;}</style></defs><g id="_レイヤー_"><g><path class="cls-1" d="m66.45,13.59C48.33-4.53,18.86-4.53.74,13.59c-.98.98-.98,2.57,0,3.55.98.98,2.57.98,3.55,0C12.37,9.06,22.97,5.03,33.59,5.02c10.62,0,21.22,4.04,29.31,12.12.98.98,2.57.98,3.55,0,.98-.98.98-2.57,0-3.55Z"/><path class="cls-1" d="m9.62,22.47c-.98.98-.98,2.57,0,3.55.98.98,2.57.98,3.55,0,5.63-5.64,13.02-8.44,20.43-8.45,7.41,0,14.79,2.81,20.43,8.45.98.98,2.57.98,3.55,0,.98-.98.98-2.57,0-3.55-13.23-13.22-34.72-13.22-47.95,0Z"/><path class="cls-1" d="m18.5,31.35c-.98.98-.98,2.57,0,3.55.98.98,2.57.98,3.55,0,3.19-3.19,7.35-4.77,11.54-4.77,4.19,0,8.36,1.59,11.54,4.77.98.98,2.57.98,3.55,0,.98-.98.98-2.57,0-3.55-8.33-8.33-21.86-8.33-30.19,0Z"/><path class="cls-1" d="m26.84,43.25l6.75,6.75,6.75-6.75c-3.73-3.73-9.78-3.73-13.51,0Z"/></g></g></svg>