<?xml version="1.0" encoding="UTF-8"?><svg id="_レイヤー_2" xmlns="http://www.w3.org/2000/svg" viewBox="0 0 71.93 70"><defs><style>.cls-1{fill:#6ea0be;}</style></defs><g id="_レイヤー_"><g><g><g><path class="cls-1" d="m57.64,41.53c-.34,0-.68-.13-.95-.39-.52-.52-.52-1.37,0-1.89l4.51-4.51c.39-.39.6-.89.59-1.43,0-.55-.21-1.07-.59-1.45-.79-.79-2.08-.79-2.87,0l-9.27,9.27c-.52.52-1.37.52-1.89,0-.52-.52-.52-1.37,0-1.89l9.27-9.27c1.84-1.84,4.82-1.84,6.66,0,.89.89,1.38,2.07,1.38,3.33,0,1.25-.48,2.43-1.38,3.33l-4.51,4.51c-.26.26-.6.39-.95.39Z"/><path class="cls-1" d="m60.84,70h-21.8c-.36,0-.7-.14-.95-.39-.25-.25-.39-.59-.39-.95v-7.86c0-.74.6-1.34,1.34-1.34h21.79c.74,0,1.34.59,1.34,1.33v7.86c0,.74-.6,1.34-1.34,1.34Zm-20.46-2.68h19.12v-5.19h-19.12s0,5.19,0,5.19Z"/><path class="cls-1" d="m57.75,62.14h-15.3c-.74,0-1.34-.6-1.34-1.34v-10.86c0-2.99,1.16-5.81,3.28-7.93l2.77-2.77c.52-.52,1.37-.52,1.89,0,.52.52.52,1.37,0,1.89l-2.77,2.77c-1.61,1.61-2.5,3.75-2.5,6.03v9.52h12.62v-3.38c0-2.05.8-3.98,2.25-5.43l9.3-9.3c.83-.83,1.29-1.93,1.29-3.11V13.71c0-.46-.17-.89-.49-1.21-.32-.32-.73-.49-1.2-.49-.4,0-.79.13-1.23.41-1.1.71-1.78,2.04-1.78,3.48v18.81c0,.35-.14.7-.39.95l-5.47,5.47c-.52.52-1.37.52-1.89,0-.52-.52-.52-1.37,0-1.89l5.08-5.08V15.91c0-2.37,1.12-4.52,3-5.73.87-.56,1.82-.85,2.7-.84,1.15,0,2.24.45,3.07,1.27.82.82,1.28,1.92,1.28,3.1v24.53c0,1.89-.74,3.67-2.07,5l-9.3,9.3c-.94.94-1.46,2.2-1.46,3.54v4.71c0,.74-.6,1.34-1.34,1.34Z"/></g><g><path class="cls-1" d="m14.29,41.53c-.34,0-.68-.13-.95-.39l-4.51-4.51c-.9-.89-1.38-2.08-1.38-3.34,0-1.25.49-2.43,1.38-3.32,1.84-1.84,4.82-1.84,6.66,0l9.27,9.27c.52.52.52,1.37,0,1.89s-1.37.52-1.89,0l-9.27-9.27c-.79-.79-2.08-.79-2.88,0-.38.38-.59.89-.59,1.44,0,.54.21,1.05.59,1.44l4.51,4.51c.52.52.52,1.37,0,1.89-.26.26-.6.39-.95.39Z"/><path class="cls-1" d="m32.88,70H11.08c-.74,0-1.34-.6-1.34-1.34v-7.86c0-.74.6-1.34,1.34-1.34h21.79c.74,0,1.34.6,1.34,1.34v7.86c0,.35-.13.7-.39.95-.25.25-.59.39-.95.39Zm-20.46-2.68h19.12v-5.18s-19.12,0-19.12,0v5.19Z"/><path class="cls-1" d="m29.48,62.14h-15.3c-.74,0-1.34-.6-1.34-1.34v-4.71c0-1.34-.52-2.59-1.46-3.54l-9.3-9.3c-1.34-1.33-2.07-3.11-2.07-5V13.71c0-1.18.45-2.28,1.28-3.1.83-.83,1.92-1.25,3.11-1.27.9,0,1.8.28,2.66.84,1.88,1.22,3,3.36,3,5.73v18.26l5.08,5.08c.52.52.52,1.37,0,1.89-.52.52-1.37.52-1.89,0l-5.47-5.47c-.25-.25-.39-.59-.39-.95V15.91c0-1.44-.68-2.77-1.78-3.48-.44-.28-.81-.41-1.23-.41-.46,0-.88.17-1.19.49-.32.32-.49.75-.49,1.21v24.53c0,1.17.46,2.28,1.29,3.11l9.3,9.3c1.45,1.45,2.25,3.38,2.25,5.43v3.38h12.62v-9.52c0-2.28-.88-4.42-2.49-6.03l-2.77-2.77c-.52-.52-.52-1.37,0-1.89.52-.52,1.37-.52,1.89,0l2.77,2.77c2.12,2.12,3.28,4.93,3.28,7.93v10.86c0,.74-.6,1.34-1.34,1.34Z"/></g></g><path class="cls-1" d="m47.09,2.47c3.33,0,5.98,1.97,5.54,4.44-.71,4-7.42,6.59-9.65,7.18-2.24.59-4.66,1.29-5.25,2.83-.59,1.53,0,10.18,0,12.89h0s-3.86,0-3.86,0c0-2.71.59-11.48,0-13.01-.59-1.53-3.01-2.12-5.25-2.71-2.24-.59-8.95-3.18-9.65-7.18-.44-2.46,2.21-4.44,5.54-4.44,2.08,0,4.43.77,6.47,2.67,5.3,4.94,4.24,6.86,4.83,6.86s-.47-1.91,4.83-6.86c2.04-1.9,4.39-2.67,6.47-2.67m0-2.47c-2.95,0-5.85,1.18-8.15,3.34-1.38,1.29-2.39,2.6-3.14,3.85-.75-1.25-1.76-2.56-3.14-3.85C30.35,1.18,27.46,0,24.5,0h0c-2.74,0-5.25,1.04-6.72,2.79-1.1,1.31-1.55,2.92-1.26,4.55,1.12,6.35,11.35,9.11,11.46,9.14l.23.06c1.01.26,2.84.75,3.33,1.18.22,1.3.03,6.14-.06,8.51-.06,1.48-.1,2.76-.1,3.57,0,1.37,1.11,2.47,2.47,2.47h3.86c1.37,0,2.47-1.11,2.47-2.47,0-.82-.05-2.09-.1-3.56-.09-2.35-.27-7.16-.05-8.42.35-.36,1.55-.81,3.56-1.34.1-.03,10.34-2.79,11.46-9.14.29-1.62-.16-3.24-1.26-4.55-1.47-1.75-3.98-2.79-6.72-2.79h0Z"/></g></g></svg>