<?xml version="1.0" encoding="UTF-8"?><svg id="_レイヤー_2" xmlns="http://www.w3.org/2000/svg" viewBox="0 0 67 70"><defs><style>.cls-1{fill:#6ea0be;}</style></defs><g id="_レイヤー_"><g><g><path class="cls-1" d="m10.76,22.5C4.83,22.5,0,17.67,0,11.74S4.83.99,10.76.99s10.75,4.82,10.75,10.75-4.82,10.75-10.75,10.75Zm0-19.15C6.13,3.35,2.36,7.11,2.36,11.74s3.77,8.39,8.4,8.39,8.39-3.77,8.39-8.39S15.38,3.35,10.76,3.35Z"/><path class="cls-1" d="m5.9,12.92c-.65,0-1.18-.53-1.18-1.18,0-3.33,2.71-6.03,6.03-6.03.65,0,1.18.53,1.18,1.18s-.53,1.18-1.18,1.18c-2.03,0-3.67,1.65-3.67,3.67,0,.65-.53,1.18-1.18,1.18Z"/></g><path class="cls-1" d="m31.77,51.14c-9.4,0-17.05-7.65-17.05-17.05s7.65-17.06,17.05-17.06,17.05,7.65,17.05,17.06-7.65,17.05-17.05,17.05Zm0-31.75c-8.1,0-14.69,6.59-14.69,14.69s6.59,14.69,14.69,14.69,14.69-6.59,14.69-14.69-6.59-14.69-14.69-14.69Z"/><path class="cls-1" d="m20.62,35.27c-.65,0-1.18-.53-1.18-1.18,0-6.8,5.53-12.33,12.33-12.33.65,0,1.18.53,1.18,1.18s-.53,1.18-1.18,1.18c-5.5,0-9.97,4.47-9.97,9.97,0,.65-.53,1.18-1.18,1.18Z"/><path class="cls-1" d="m15.65,35.27h-5.25c-.65,0-1.18-.53-1.18-1.18s.53-1.18,1.18-1.18h5.25c.65,0,1.18.53,1.18,1.18s-.53,1.18-1.18,1.18Z"/><path class="cls-1" d="m53.87,35.27h-6.22c-.65,0-1.18-.53-1.18-1.18s.53-1.18,1.18-1.18h6.22c.65,0,1.18.53,1.18,1.18s-.53,1.18-1.18,1.18Z"/><path class="cls-1" d="m15.74,56.68c-.25,0-.5-.08-.71-.24-.52-.39-.62-1.13-.23-1.65l6.45-8.57c.39-.52,1.13-.62,1.65-.23.52.39.62,1.13.23,1.65l-6.45,8.57c-.23.31-.59.47-.94.47Z"/><path class="cls-1" d="m41.48,22.53c-.25,0-.5-.08-.71-.24-.52-.39-.62-1.13-.23-1.65l9.9-13.14c.39-.52,1.13-.62,1.65-.23.52.39.62,1.13.23,1.65l-9.9,13.14c-.23.31-.59.47-.94.47Z"/><path class="cls-1" d="m20.79,23.53c-.31,0-.63-.13-.86-.37l-3.28-3.5c-.44-.48-.42-1.22.06-1.67.48-.44,1.22-.42,1.67.06l3.28,3.51c.44.48.42,1.22-.06,1.67-.23.21-.52.32-.81.32Z"/><path class="cls-1" d="m45.17,49.94c-.32,0-.63-.13-.87-.38l-2.59-2.8c-.44-.48-.41-1.23.07-1.67.48-.44,1.23-.41,1.67.07l2.59,2.8c.44.48.41,1.23-.07,1.67-.23.21-.51.31-.8.31Z"/><path class="cls-1" d="m53.57,9.63c-2.66,0-4.82-2.16-4.82-4.82s2.16-4.82,4.82-4.82,4.82,2.16,4.82,4.82-2.16,4.82-4.82,4.82Zm0-7.27c-1.35,0-2.46,1.1-2.46,2.46s1.1,2.45,2.46,2.45,2.45-1.1,2.45-2.45-1.1-2.46-2.45-2.46Z"/><path class="cls-1" d="m12.85,64.65c-2.72,0-4.94-2.21-4.94-4.94s2.21-4.94,4.94-4.94,4.94,2.21,4.94,4.94-2.21,4.94-4.94,4.94Zm0-7.51c-1.42,0-2.58,1.16-2.58,2.58s1.16,2.58,2.58,2.58,2.58-1.16,2.58-2.58-1.16-2.58-2.58-2.58Z"/><path class="cls-1" d="m6.31,38.67c-2.52,0-4.57-2.05-4.57-4.57s2.05-4.57,4.57-4.57,4.57,2.05,4.57,4.57-2.05,4.57-4.57,4.57Zm0-6.79c-1.22,0-2.21.99-2.21,2.21s.99,2.21,2.21,2.21,2.21-.99,2.21-2.21-.99-2.21-2.21-2.21Z"/><path class="cls-1" d="m59.88,41.21c-3.92,0-7.12-3.19-7.12-7.12s3.19-7.12,7.12-7.12,7.12,3.19,7.12,7.12-3.19,7.12-7.12,7.12Zm0-11.88c-2.62,0-4.76,2.13-4.76,4.76s2.13,4.76,4.76,4.76,4.76-2.13,4.76-4.76-2.13-4.76-4.76-4.76Z"/><g><path class="cls-1" d="m53.26,70c-6.92,0-12.55-5.63-12.55-12.55s5.63-12.55,12.55-12.55,12.55,5.63,12.55,12.55-5.63,12.55-12.55,12.55Zm0-22.73c-5.62,0-10.19,4.57-10.19,10.19s4.57,10.19,10.19,10.19,10.19-4.57,10.19-10.19-4.57-10.19-10.19-10.19Z"/><path class="cls-1" d="m46.62,58.63c-.65,0-1.18-.53-1.18-1.18,0-4.32,3.51-7.83,7.83-7.83.65,0,1.18.53,1.18,1.18s-.53,1.18-1.18,1.18c-3.01,0-5.47,2.45-5.47,5.47,0,.65-.53,1.18-1.18,1.18Z"/></g></g></g></svg>