<?xml version="1.0" encoding="UTF-8"?><svg id="_レイヤー_2" xmlns="http://www.w3.org/2000/svg" viewBox="0 0 65.29 70"><defs><style>.cls-1{fill:#6ea0be;}</style></defs><g id="_レイヤー_"><g><g><path class="cls-1" d="m54.97,61.12H7.76c-.67,0-1.21-.54-1.21-1.21v-18.66c0-.67.54-1.21,1.21-1.21s1.21.54,1.21,1.21v17.45h44.8v-26.69c0-.22-.18-.4-.4-.4h-.9c-.67,0-1.21-.54-1.21-1.21s.54-1.21,1.21-1.21h.9c1.55,0,2.82,1.26,2.82,2.82v27.9c0,.67-.54,1.21-1.21,1.21Z"/><path class="cls-1" d="m60.72,70H2.01c-.79,0-1.49-.45-1.82-1.16-.33-.72-.22-1.54.29-2.14l6.36-7.55c.23-.27.57-.43.92-.43h47.21c.36,0,.69.16.92.43l6.36,7.56c.51.6.62,1.43.29,2.14-.33.72-1.03,1.16-1.82,1.16Zm-.31-1.75h0,0Zm-57.53-.66h56.97l-5.44-6.46H8.32l-5.44,6.46Z"/><path class="cls-1" d="m35.71,65.56h-8.68c-.67,0-1.21-.54-1.21-1.21s.54-1.21,1.21-1.21h8.68c.67,0,1.21.54,1.21,1.21s-.54,1.21-1.21,1.21Z"/></g><g><path class="cls-1" d="m11.72,41.19c-.31,0-.62-.12-.85-.35-.47-.47-.47-1.24,0-1.71,3.98-3.98,10.25-5.11,17.66-3.2,6.26,1.62,11.57.85,14.94-2.17,3.09-2.77,4.36-7.31,3.58-12.78-.09-.66.36-1.27,1.02-1.37.66-.09,1.27.36,1.37,1.02.9,6.3-.65,11.6-4.36,14.92-4,3.57-10.09,4.54-17.15,2.71-6.55-1.69-12.01-.78-15.35,2.57-.24.24-.54.35-.85.35Z"/><path class="cls-1" d="m46.89,15.1c-.61,0-1.13-.46-1.2-1.07-.64-5.64.76-10.49,3.94-13.68.47-.47,1.24-.47,1.71,0,.47.47.47,1.24,0,1.71-2.69,2.69-3.82,6.74-3.25,11.7.08.66-.4,1.26-1.06,1.34-.05,0-.09,0-.14,0Z"/><path class="cls-1" d="m27.49,34.32c-.61,0-1.13-.46-1.2-1.08-.63-5.98,1.02-11,4.65-14.13,3.99-3.45,10.02-4.36,16.98-2.56,6.76,1.75,12.05.88,15.29-2.5.46-.48,1.23-.5,1.71-.04.48.46.5,1.23.04,1.71-3.88,4.06-9.98,5.16-17.64,3.17-6.16-1.59-11.42-.87-14.8,2.05-3.02,2.6-4.37,6.88-3.83,12.05.07.66-.41,1.26-1.07,1.33-.04,0-.09,0-.13,0Z"/><path class="cls-1" d="m25.35,54.82c-.31,0-.62-.12-.85-.35-.47-.47-.47-1.24,0-1.71,2.69-2.69,3.82-6.74,3.25-11.7-.08-.66.4-1.26,1.06-1.34.66-.08,1.26.4,1.34,1.06.64,5.64-.76,10.49-3.94,13.68-.24.24-.54.35-.85.35Z"/><g><path class="cls-1" d="m22.74,51.42c-.31,0-.62-.12-.85-.35l-7.82-7.82c-.47-.47-.47-1.24,0-1.71.47-.47,1.24-.47,1.71,0l7.82,7.82c.47.47.47,1.24,0,1.71-.24.24-.54.35-.85.35Z"/><path class="cls-1" d="m24.06,47.36c-.31,0-.62-.12-.85-.35l-5.08-5.08c-.47-.47-.47-1.24,0-1.71.47-.47,1.24-.47,1.71,0l5.08,5.08c.47.47.47,1.24,0,1.71-.24.24-.54.35-.85.35Z"/><path class="cls-1" d="m25.22,43.15c-.31,0-.62-.12-.85-.35l-2.03-2.03c-.47-.47-.47-1.24,0-1.71.47-.47,1.24-.47,1.71,0l2.03,2.03c.47.47.47,1.24,0,1.71-.24.24-.54.35-.85.35Z"/></g><g><path class="cls-1" d="m60.69,13.47c-.31,0-.62-.12-.85-.35l-7.82-7.82c-.47-.47-.47-1.24,0-1.71.47-.47,1.24-.47,1.71,0l7.82,7.82c.47.47.47,1.24,0,1.71-.24.24-.54.35-.85.35Z"/><path class="cls-1" d="m56.63,14.79c-.31,0-.62-.12-.85-.35l-5.08-5.08c-.47-.47-.47-1.24,0-1.71.47-.47,1.24-.47,1.71,0l5.08,5.08c.47.47.47,1.24,0,1.71-.24.24-.54.35-.85.35Z"/><path class="cls-1" d="m52.42,15.95c-.31,0-.62-.12-.85-.35l-2.03-2.03c-.47-.47-.47-1.24,0-1.71.47-.47,1.24-.47,1.71,0l2.03,2.03c.47.47.47,1.24,0,1.71-.24.24-.54.35-.85.35Z"/></g><g><path class="cls-1" d="m41.56,32.59c-.31,0-.62-.12-.85-.35l-7.82-7.82c-.47-.47-.47-1.24,0-1.71.47-.47,1.24-.47,1.71,0l7.82,7.82c.47.47.47,1.24,0,1.71-.24.24-.54.35-.85.35Z"/><path class="cls-1" d="m37.51,33.92c-.31,0-.62-.12-.85-.35l-5.08-5.08c-.47-.47-.47-1.24,0-1.71.47-.47,1.24-.47,1.71,0l5.08,5.08c.47.47.47,1.24,0,1.71-.24.24-.54.35-.85.35Z"/><path class="cls-1" d="m33.29,35.08c-.31,0-.62-.12-.85-.35l-2.03-2.03c-.47-.47-.47-1.24,0-1.71.47-.47,1.24-.47,1.71,0l2.03,2.03c.47.47.47,1.24,0,1.71-.24.24-.54.35-.85.35Z"/></g><g><path class="cls-1" d="m42.93,28.49c-.31,0-.62-.12-.85-.35l-5.08-5.08c-.47-.47-.47-1.24,0-1.71.47-.47,1.24-.47,1.71,0l5.08,5.08c.47.47.47,1.24,0,1.71-.24.24-.54.35-.85.35Z"/><path class="cls-1" d="m44.1,24.27c-.31,0-.62-.12-.85-.35l-2.03-2.03c-.47-.47-.47-1.24,0-1.71.47-.47,1.24-.47,1.71,0l2.03,2.03c.47.47.47,1.24,0,1.71-.24.24-.54.35-.85.35Z"/></g></g><path class="cls-1" d="m7.76,42.47c-.67,0-1.21-.54-1.21-1.21v-9.39c0-1.47,1.2-2.67,2.67-2.67h13.1c.67,0,1.21.54,1.21,1.21s-.54,1.21-1.21,1.21h-13.1c-.14,0-.25.11-.25.26v9.39c0,.67-.54,1.21-1.21,1.21Z"/></g></g></svg>