<?xml version="1.0" encoding="UTF-8"?><svg id="_レイヤー_2" xmlns="http://www.w3.org/2000/svg" viewBox="0 0 62.53 64"><defs><style>.cls-1{fill:#6ea0be;}</style></defs><g id="_レイヤー_"><g><path class="cls-1" d="m5.58,18.04c.41.67,1.07,1.14,1.83,1.32l4.34.98,6.91,6.93c.56.57,1.3.85,2.05.85s1.44-.27,2-.8c1.62-1.55,3.02-2.9,4.08-3.91.56-.54.88-1.28.89-2.05,0-.77-.3-1.52-.84-2.07l-7-7.02-.98-4.34c-.17-.76-.65-1.43-1.32-1.83L9.05.92c-.46-.28-.98-.42-1.5-.42-.75,0-1.49.29-2.04.85l-2.33,2.33L.85,6.01c-.94.94-1.12,2.4-.43,3.54l5.16,8.49Zm-.36-12.31l2.33-2.33,8.49,5.16,1.16,5.16,7.58,7.61c-1.05,1.01-2.46,2.36-4.07,3.91l-7.5-7.53-5.16-1.16L2.89,8.05l2.33-2.33Z"/><path class="cls-1" d="m59.76,47.84l-12.98-12.94h-4.08s-9.3,9.31-9.3,9.31v4.09s12.98,12.93,12.98,12.93c1.79,1.78,4.16,2.77,6.69,2.77s4.91-.98,6.69-2.77c1.79-1.79,2.77-4.17,2.77-6.7s-.99-4.91-2.77-6.69Zm-2.04,11.35c-1.29,1.28-2.97,1.93-4.65,1.93s-3.37-.64-4.65-1.93l-12.98-12.93,9.3-9.3,12.98,12.93c2.57,2.57,2.57,6.73,0,9.3Z"/><path class="cls-1" d="m45.28,31.79c3.05-.19,7.23-.44,10.94-3.81,4.96-4.5,6.88-10.23,5.43-16.15-.16-1.08-.65-1.94-1.46-2.56l-.87-.71c-.67-.59-1.53-.91-2.42-.91-.11,0-.23,0-.34.02-1.05.11-1.99.64-2.6,1.46l-4.98,6.47-.24.02-2.62-2.22-.03-.19,4.7-6.38c1.1-1.51.9-3.6-.46-4.87l-.19-.16-1.2-.94c-.65-.55-1.45-.84-2.32-.84-.38,0-.71.05-.98.11-4.29.85-11.53,4.91-13.48,10.94-1.35,4.15-1.15,7.3-1.04,8.28-.04,1.77-.63,3.13-.9,3.43L3.18,48.72c-.08.07-.15.14-.23.22-1.62,1.62-2.52,3.77-2.53,6.07-.01,2.3.86,4.45,2.46,6.05,1.58,1.58,3.8,2.49,6.08,2.49s4.48-.89,6.1-2.51c.15-.15.28-.29.42-.45l25.97-28.08c.69-.53,2.15-.62,3.84-.72Zm-31.97,26.88c-.09.11-.19.22-.3.32-1.11,1.11-2.59,1.66-4.05,1.66s-2.95-.55-4.03-1.64c-2.16-2.16-2.17-5.8.07-8.03.05-.05.1-.1.16-.15l27.1-26.02c.96-.96,1.75-3.26,1.75-5.65,0,0-.48-2.98.89-7.22,1.56-4.81,7.69-8.29,11.28-9,.16-.03.3-.05.43-.05.18,0,.33.05.48.18l1.26.99c.29.27.34.72.1,1.05l-5.2,7.07c-.12.17-.17.37-.14.57l.24,1.83c.03.2.13.39.29.51l3.9,3.3c.14.11.3.17.48.18l2.02-.15s.02,0,.03,0c.25,0,.49-.12.64-.33l5.56-7.22c.13-.19.34-.3.57-.32.02,0,.05,0,.07,0,.2,0,.4.08.54.22l.97.79c.29.21.37.49.4.82,1.07,4.17.27,9.12-4.53,13.48-5.25,4.76-11.62,1.72-14.83,4.58l-26.14,28.25Z"/></g></g></svg>