<?xml version="1.0" encoding="UTF-8"?><svg id="_レイヤー_2" xmlns="http://www.w3.org/2000/svg" viewBox="0 0 64.59 63.5"><defs><style>.cls-1{fill:#6ea0be;}</style></defs><g id="_レイヤー_"><g><g><path class="cls-1" d="m31.21,37.73c2.56,0,4.64-2.08,4.64-4.64s-2.08-4.64-4.64-4.64-4.64,2.08-4.64,4.64,2.08,4.64,4.64,4.64Zm0-6.5c1.02,0,1.86.83,1.86,1.86s-.83,1.86-1.86,1.86-1.86-.83-1.86-1.86.83-1.86,1.86-1.86Z"/><path class="cls-1" d="m26.95,46.18h-5.83c-.77,0-1.39.62-1.39,1.39s.62,1.39,1.39,1.39h5.83c.77,0,1.39-.62,1.39-1.39s-.62-1.39-1.39-1.39Z"/><path class="cls-1" d="m40.62,51.54h-6.16c-.77,0-1.39.62-1.39,1.39s.62,1.39,1.39,1.39h6.16c.77,0,1.39-.62,1.39-1.39s-.62-1.39-1.39-1.39Z"/><path class="cls-1" d="m35.87,24.15v-2.98h.4c1.98,0,3.59-1.61,3.59-3.59s-1.61-3.59-3.59-3.59h-2.24c0-.34-.02-.76-.04-1.23-.03-.77-.08-2.19-.07-3.02.29-.1.66-.2.82-.24.54-.14,5.3-1.49,5.91-4.94.18-1.05-.1-2.08-.8-2.92-.86-1.02-2.29-1.63-3.83-1.63s-3.15.63-4.38,1.78c-.24.23-.46.44-.66.64-.2-.2-.42-.42-.66-.64C29.1.63,27.54,0,25.95,0c-1.54,0-2.97.61-3.83,1.63-.7.84-.98,1.87-.8,2.92.61,3.45,5.37,4.8,5.91,4.94l.1.03c.2.05.48.13.72.2.02.84-.04,2.26-.07,3.03-.02.47-.03.9-.04,1.24h-2.05c-1.98,0-3.59,1.61-3.59,3.59s1.61,3.59,3.59,3.59h.4v2.98c-8.85,2.18-15.17,10.17-15.17,19.38,0,11.01,8.96,19.96,19.96,19.96s19.96-8.96,19.96-19.96c0-9.21-6.32-17.2-15.17-19.38ZM27.78,7.37c-1-.26-3.99-1.42-4.31-3.2-.19-1.1.98-1.98,2.47-1.98.93,0,1.98.34,2.89,1.19,2.36,2.21,1.89,2.79,2.15,2.79s-.21-.58,2.15-2.79c.91-.85,1.96-1.19,2.89-1.19,1.49,0,2.67.88,2.47,1.98-.32,1.79-3.31,2.94-4.31,3.2-1,.26-2.08.58-2.34,1.26-.24.62-.04,3.86,0,5.35h-1.71c.04-1.5.23-4.78,0-5.41-.26-.68-1.34-.95-2.34-1.21Zm-1.89,11.4c-.66,0-1.2-.54-1.2-1.2s.54-1.2,1.2-1.2h10.38c.66,0,1.2.54,1.2,1.2s-.54,1.2-1.2,1.2h-10.38Zm1.82,7.51l.97-.19v-4.93h4.79v4.93l.97.19c7.21,1.4,12.69,7.14,13.94,14.2H13.78c1.24-7.05,6.72-12.8,13.94-14.2Zm3.37,34.81c-9.69,0-17.57-7.88-17.57-17.57,0-.22.02-.43.03-.65h35.08c0,.22.03.43.03.65,0,9.69-7.88,17.57-17.57,17.57Z"/></g><path class="cls-1" d="m12.78,20.79l-8.75,2.01,2.05,2.2C3.17,28.66.02,34.46,0,42.5c0,.83.67,1.5,1.5,1.5h0c.83,0,1.5-.67,1.5-1.5.02-6.93,2.63-12,5.15-15.28l2,2.14,2.63-8.58Z"/><path class="cls-1" d="m61.58,40.98c-.52-4.65-2.4-10.97-8.06-16.67-.58-.59-1.53-.59-2.12,0-.59.58-.59,1.53,0,2.12,4.89,4.92,6.62,10.34,7.16,14.45l-2.93-.1,4.21,7.93,4.76-7.61-3.01-.11Z"/></g></g></svg>