<?xml version="1.0" encoding="UTF-8"?><svg id="_レイヤー_2" xmlns="http://www.w3.org/2000/svg" viewBox="0 0 70.12 70"><defs><style>.cls-1{fill:#c8965a;}</style></defs><g id="_レイヤー_"><g><g><path class="cls-1" d="m63.72,65.57c-.07,0-.13,0-.2-.02l-8.67-1.43c-.25-.04-.48-.16-.66-.34l-15.84-15.84c-.47-.47-.47-1.24,0-1.71.47-.47,1.24-.47,1.71,0l15.56,15.56,6.63,1.09-1.09-6.63-15.7-15.7c-.47-.47-.47-1.24,0-1.71.47-.47,1.24-.47,1.71,0l15.97,15.97c.18.18.3.41.34.66l1.43,8.67c.06.38-.06.78-.34,1.05-.23.23-.54.35-.85.35Z"/><path class="cls-1" d="m22.93,32.03c-.31,0-.62-.12-.85-.35L3.24,12.83c-.47-.47-.47-1.24,0-1.71l7.24-7.24c.47-.47,1.24-.47,1.71,0l19.09,19.09c.47.47.47,1.24,0,1.71-.47.47-1.24.47-1.71,0L11.33,6.44l-5.53,5.54,17.99,17.99c.47.47.47,1.24,0,1.71-.24.24-.54.35-.85.35Z"/><path class="cls-1" d="m1.21,6.57c-.31,0-.62-.12-.85-.35-.47-.47-.47-1.24,0-1.71L3.97.89c.47-.47,1.24-.47,1.71,0,.47.47.47,1.24,0,1.71l-3.62,3.62c-.24.24-.54.35-.85.35Z"/><path class="cls-1" d="m21.63,25.38c-.31,0-.62-.12-.85-.35-.47-.47-.47-1.24,0-1.71l2.01-2.01c.47-.47,1.24-.47,1.71,0s.47,1.24,0,1.71l-2.01,2.01c-.24.24-.54.35-.85.35Z"/><path class="cls-1" d="m67.61,69.47c-.31,0-.62-.12-.85-.35l-3.89-3.89c-.47-.47-.47-1.24,0-1.71.47-.47,1.24-.47,1.71,0l3.89,3.89c.47.47.47,1.24,0,1.71-.24.24-.54.35-.85.35Z"/><path class="cls-1" d="m35.65,19.53c-.31,0-.62-.12-.85-.35l-11.75-11.75c-1.47-1.47-3.86-1.47-5.33,0l-1.84,1.85c-.47.47-1.24.47-1.71,0-.47-.47-.47-1.24,0-1.71l1.84-1.84c2.41-2.41,6.33-2.41,8.75,0l11.75,11.75c.47.47.47,1.24,0,1.71-.24.24-.54.35-.85.35Z"/></g><g><path class="cls-1" d="m11.66,70h0c-.32,0-.63-.13-.85-.35L.48,59.32c-.47-.47-.47-1.24,0-1.71L57.73.35c.47-.47,1.24-.47,1.71,0l10.33,10.33c.23.23.35.53.35.85s-.13.63-.35.85L12.51,69.65c-.23.23-.53.35-.85.35Zm-8.62-11.54l8.62,8.62L67.21,11.54l-8.62-8.62L3.04,58.46Z"/><g><path class="cls-1" d="m57.18,13.76c-.31,0-.62-.12-.85-.35l-4.92-4.92c-.47-.47-.47-1.24,0-1.71.47-.47,1.24-.47,1.71,0l4.92,4.92c.47.47.47,1.24,0,1.71-.24.24-.54.35-.85.35Z"/><path class="cls-1" d="m52.06,15.01c-.31,0-.62-.12-.85-.35l-2.99-2.99c-.47-.47-.47-1.24,0-1.71.47-.47,1.24-.47,1.71,0l2.99,2.99c.47.47.47,1.24,0,1.71-.24.24-.54.35-.85.35Z"/><path class="cls-1" d="m50.82,20.12c-.31,0-.62-.12-.85-.35l-4.92-4.92c-.47-.47-.47-1.24,0-1.71.47-.47,1.24-.47,1.71,0l4.92,4.92c.47.47.47,1.24,0,1.71-.24.24-.54.35-.85.35Z"/><path class="cls-1" d="m45.71,21.37c-.31,0-.62-.12-.85-.35l-2.99-2.99c-.47-.47-.47-1.24,0-1.71.47-.47,1.24-.47,1.71,0l2.99,2.99c.47.47.47,1.24,0,1.71-.24.24-.54.35-.85.35Z"/><path class="cls-1" d="m44.46,26.48c-.31,0-.62-.12-.85-.35l-4.92-4.92c-.47-.47-.47-1.24,0-1.71.47-.47,1.24-.47,1.71,0l4.92,4.92c.47.47.47,1.24,0,1.71-.24.24-.54.35-.85.35Z"/><path class="cls-1" d="m39.35,27.72c-.31,0-.62-.12-.85-.35l-2.99-2.99c-.47-.47-.47-1.24,0-1.71.47-.47,1.24-.47,1.71,0l2.99,2.99c.47.47.47,1.24,0,1.71-.24.24-.54.35-.85.35Z"/><path class="cls-1" d="m38.11,32.83c-.31,0-.62-.12-.85-.35l-4.92-4.92c-.47-.47-.47-1.24,0-1.71.47-.47,1.24-.47,1.71,0l4.92,4.92c.47.47.47,1.24,0,1.71-.24.24-.54.35-.85.35Z"/><path class="cls-1" d="m32.99,34.08c-.31,0-.62-.12-.85-.35l-2.99-2.99c-.47-.47-.47-1.24,0-1.71.47-.47,1.24-.47,1.71,0l2.99,2.99c.47.47.47,1.24,0,1.71-.24.24-.54.35-.85.35Z"/><path class="cls-1" d="m31.75,39.19c-.31,0-.62-.12-.85-.35l-4.92-4.92c-.47-.47-.47-1.24,0-1.71.47-.47,1.24-.47,1.71,0l4.92,4.92c.47.47.47,1.24,0,1.71-.24.24-.54.35-.85.35Z"/><path class="cls-1" d="m26.64,40.44c-.31,0-.62-.12-.85-.35l-2.99-2.99c-.47-.47-.47-1.24,0-1.71.47-.47,1.24-.47,1.71,0l2.99,2.99c.47.47.47,1.24,0,1.71-.24.24-.54.35-.85.35Z"/><path class="cls-1" d="m25.39,45.55c-.31,0-.62-.12-.85-.35l-4.92-4.92c-.47-.47-.47-1.24,0-1.71.47-.47,1.24-.47,1.71,0l4.92,4.92c.47.47.47,1.24,0,1.71-.24.24-.54.35-.85.35Z"/><path class="cls-1" d="m20.28,46.79c-.31,0-.62-.12-.85-.35l-2.99-2.99c-.47-.47-.47-1.24,0-1.71.47-.47,1.24-.47,1.71,0l2.99,2.99c.47.47.47,1.24,0,1.71-.24.24-.54.35-.85.35Z"/><path class="cls-1" d="m19.04,51.9c-.31,0-.62-.12-.85-.35l-4.92-4.92c-.47-.47-.47-1.24,0-1.71.47-.47,1.24-.47,1.71,0l4.92,4.92c.47.47.47,1.24,0,1.71-.24.24-.54.35-.85.35Z"/><path class="cls-1" d="m13.93,53.15c-.31,0-.62-.12-.85-.35l-2.99-2.99c-.47-.47-.47-1.24,0-1.71.47-.47,1.24-.47,1.71,0l2.99,2.99c.47.47.47,1.24,0,1.71-.24.24-.54.35-.85.35Z"/><path class="cls-1" d="m12.68,58.26c-.31,0-.62-.12-.85-.35l-4.92-4.92c-.47-.47-.47-1.24,0-1.71.47-.47,1.24-.47,1.71,0l4.92,4.92c.47.47.47,1.24,0,1.71-.24.24-.54.35-.85.35Z"/></g></g><path class="cls-1" d="m5.96,11.32c-.31,0-.62-.12-.85-.35L.35,6.21c-.47-.47-.47-1.24,0-1.71.47-.47,1.24-.47,1.71,0l4.75,4.75c.47.47.47,1.24,0,1.71-.24.24-.54.35-.85.35Z"/><path class="cls-1" d="m9.58,7.7c-.31,0-.62-.12-.85-.35L3.97,2.6c-.47-.47-.47-1.24,0-1.71.47-.47,1.24-.47,1.71,0l4.75,4.75c.47.47.47,1.24,0,1.71-.24.24-.54.35-.85.35Z"/></g></g></svg>