<?xml version="1.0" encoding="UTF-8"?><svg id="_レイヤー_2" xmlns="http://www.w3.org/2000/svg" viewBox="0 0 78.39 70"><defs><style>.cls-1{fill:#c8965a;}</style></defs><g id="_レイヤー_"><g><path class="cls-1" d="m62.35,44.18c-.35,0-.69-.13-.95-.4-.53-.53-.53-1.38,0-1.91l7.8-7.8c1.42-1.42,2.25-3.3,2.35-5.29l.45-9.05c.02-.33.16-.65.39-.89l3.7-3.7c.53-.53,1.38-.53,1.91,0,.53.53.53,1.38,0,1.91l-3.33,3.33-.42,8.53c-.13,2.67-1.24,5.18-3.14,7.07l-7.8,7.8c-.26.26-.61.4-.95.4Z"/><path class="cls-1" d="m31.29,63.69c-1.33,0-2.57-.51-3.51-1.45-1.96-1.96-1.91-5.19.11-7.2l4.73-4.73c.99-.99,2.34-1.56,3.71-1.56s2.57.51,3.5,1.44c1.96,1.96,1.91,5.19-.11,7.21l-4.73,4.73c-1,1-2.32,1.55-3.7,1.55Zm5.04-12.24c-.66,0-1.32.28-1.81.77l-4.73,4.73c-.96.96-1.01,2.48-.11,3.39.89.89,2.45.84,3.4-.11l4.73-4.73c.97-.97,1.01-2.49.11-3.4-.42-.42-.98-.65-1.59-.65Z"/><path class="cls-1" d="m24.87,59.71c-1.33,0-2.57-.51-3.5-1.44-.93-.93-1.45-2.17-1.45-3.51s.55-2.71,1.56-3.71l5.95-5.95c1-1,2.31-1.55,3.7-1.55s2.57.51,3.5,1.44c.93.92,1.44,2.16,1.45,3.49,0,1.39-.55,2.71-1.55,3.72,0,0,0,0,0,0l-5.95,5.94c-1,1-2.32,1.55-3.7,1.55Zm6.26-13.45c-.67,0-1.31.27-1.8.75l-5.95,5.95c-.49.49-.76,1.13-.76,1.8,0,.61.23,1.18.65,1.6.88.88,2.44.83,3.39-.11l5.95-5.94c.49-.49.76-1.13.76-1.8,0-.61-.23-1.17-.65-1.59-.42-.42-.99-.65-1.59-.65Zm2.44,5h0,0Z"/><path class="cls-1" d="m37.43,67.92c-1.33,0-2.57-.51-3.5-1.44-1.57-1.56-1.9-4.03-.79-6.02.24-.43.54-.84.9-1.19l3.77-3.77c1-1,2.31-1.55,3.7-1.55s2.58.51,3.51,1.44c.96.95,1.47,2.24,1.44,3.61-.03,1.35-.58,2.63-1.55,3.6,0,0,0,0,0,0l-3.78,3.77c-.36.36-.77.67-1.21.9-.73.42-1.61.65-2.5.65Zm4.09-11.27c-.67,0-1.31.27-1.8.76l-3.77,3.77c-.18.18-.32.37-.44.59-.53.94-.39,2.09.33,2.8.72.72,1.91.84,2.79.34.23-.12.42-.27.6-.44l3.79-3.78c.47-.47.74-1.09.75-1.75.01-.63-.22-1.22-.65-1.65-.54-.54-1.17-.65-1.6-.65Zm2.45,5h0,0Z"/><path class="cls-1" d="m26.61,35.2c-2.31,0-4.62-.88-6.37-2.63-1.54-1.54-1.54-4.04,0-5.58L40.69,6.53c2.21-2.21,5.28-3.34,8.39-3.12l8.61.63,3.65-3.65c.53-.53,1.38-.53,1.91,0,.53.53.53,1.38,0,1.91l-4.08,4.08c-.28.28-.67.42-1.05.39l-9.23-.68c-2.34-.17-4.63.68-6.28,2.34l-20.46,20.46c-.49.49-.49,1.28,0,1.77,2.46,2.46,6.47,2.46,8.93,0l5.53-5.53c.47-.47,1.21-.53,1.75-.13.33.24,8.15,5.81,14.01-.05.53-.53,1.38-.53,1.91,0,.53.53.53,1.38,0,1.91-5.5,5.5-12.73,3.31-16.54.97l-4.74,4.74c-1.76,1.76-4.06,2.63-6.37,2.63Z"/><path class="cls-1" d="m20.91,53.29c-1.33,0-2.58-.51-3.51-1.44-1.95-1.95-1.91-5.19.1-7.21l.21-.2,4.53-4.54c1-1,2.31-1.55,3.7-1.55s2.58.51,3.51,1.44c.95.95,1.47,2.24,1.44,3.61-.03,1.35-.58,2.63-1.55,3.6l-4.76,4.76c-.95.96-2.3,1.52-3.68,1.52Zm5.03-12.23c-.67,0-1.31.27-1.8.76l-4.76,4.76c-.93.94-.98,2.47-.08,3.37.54.54,1.17.65,1.6.65.66,0,1.32-.28,1.8-.75l.2-.19,4.53-4.54s0,0,0,0c.47-.47.74-1.09.76-1.75.01-.63-.22-1.22-.65-1.65-.54-.54-1.17-.65-1.6-.65Z"/><path class="cls-1" d="m18.64,46.78c-.35,0-.69-.13-.95-.4l-10.4-10.4c-1.89-1.89-3-4.4-3.13-7.07l-.42-8.54-3.33-3.33c-.53-.53-.53-1.38,0-1.91.53-.53,1.38-.53,1.91,0l3.7,3.7c.24.24.38.55.39.89l.45,9.06c.1,2,.93,3.88,2.35,5.29l10.4,10.4c.53.53.53,1.38,0,1.91-.26.26-.61.4-.95.4Z"/><path class="cls-1" d="m34.32,62.47c-.36,0-.73-.15-.99-.44l-.11-.12c-.5-.55-.47-1.4.08-1.91.55-.5,1.4-.47,1.91.08l.11.12c.5.55.47,1.4-.08,1.91-.26.24-.59.35-.91.35Z"/><path class="cls-1" d="m43.34,70c-1.27,0-2.5-.46-3.43-1.39l-1.57-1.58c-.53-.53-.52-1.38,0-1.91.53-.53,1.38-.52,1.91,0l1.57,1.58c.9.9,2.51.77,3.59-.3.54-.54.85-1.22.89-1.93.04-.66-.17-1.24-.59-1.65l-1.75-1.75c-.53-.53-.53-1.38,0-1.91.53-.53,1.38-.53,1.91,0l1.75,1.75c.96.95,1.46,2.27,1.38,3.71-.08,1.38-.67,2.69-1.68,3.7-1.12,1.12-2.57,1.68-3.98,1.68Z"/><path class="cls-1" d="m51.03,66.1c-1.27,0-2.5-.46-3.43-1.38l-1.9-1.9c-.53-.53-.53-1.38,0-1.91.53-.53,1.38-.53,1.91,0l1.9,1.9c.91.91,2.51.77,3.58-.3,1.07-1.07,1.2-2.68.3-3.58l-10.31-10.31c-.53-.53-.53-1.38,0-1.91.53-.53,1.38-.53,1.91,0l10.31,10.31c1.96,1.96,1.82,5.28-.3,7.4-1.12,1.12-2.57,1.68-3.97,1.68Z"/><path class="cls-1" d="m58.61,62.1c-1.27,0-2.5-.46-3.43-1.39l-12.12-12.12c-.53-.53-.53-1.38,0-1.91.53-.53,1.38-.53,1.91,0l12.12,12.12c.91.9,2.51.77,3.58-.3,1.07-1.07,1.2-2.68.3-3.58l-12.12-12.12c-.53-.53-.53-1.38,0-1.91.53-.53,1.38-.53,1.91,0l12.12,12.12c1.96,1.96,1.82,5.28-.3,7.4-1.12,1.12-2.57,1.68-3.97,1.68Z"/><path class="cls-1" d="m62.61,54.52c-1.27,0-2.5-.46-3.42-1.38l-10.33-10.33c-.53-.53-.53-1.38,0-1.91.53-.53,1.38-.53,1.91,0l10.33,10.33c.91.9,2.51.77,3.58-.3,1.07-1.07,1.2-2.68.3-3.58l-17.66-17.66c-.53-.53-.53-1.38,0-1.91.53-.53,1.38-.53,1.91,0l17.66,17.66c1.96,1.96,1.82,5.28-.3,7.4-1.12,1.12-2.57,1.68-3.97,1.68Z"/><path class="cls-1" d="m39.2,11.28c-.35,0-.69-.13-.95-.4l-2.45-2.45c-1.66-1.66-3.94-2.51-6.28-2.34l-9.23.68c-.39.03-.78-.11-1.05-.39l-4.08-4.08c-.53-.53-.53-1.38,0-1.91.53-.53,1.38-.53,1.91,0l3.65,3.65,8.61-.63c3.12-.23,6.18.91,8.39,3.12l2.45,2.45c.53.53.53,1.38,0,1.91-.26.26-.61.4-.95.4Z"/></g></g></svg>