<?xml version="1.0" encoding="UTF-8"?><svg id="_レイヤー_2" xmlns="http://www.w3.org/2000/svg" viewBox="0 0 74.5 70"><defs><style>.cls-1{fill:#c8965a;}</style></defs><g id="_レイヤー_"><g><path class="cls-1" d="m40.56,45.15c-.58,0-1.1-.39-1.25-.96l-6.55-24.35-2.65,9.85c-.15.57-.66.96-1.25.96H11.92c-.71,0-1.29-.58-1.29-1.29s.58-1.29,1.29-1.29h15.95l3.64-13.54c.15-.57.66-.96,1.25-.96h0c.59,0,1.1.39,1.25.96l6.55,24.35,2.64-9.83c.04-.16.11-.31.2-.44.06-.08.12-.15.19-.21.23-.21.53-.33.86-.33h0s0,0,0,0h16.61c.71,0,1.29.58,1.29,1.29s-.58,1.29-1.29,1.29h-15.61l-3.64,13.55c-.15.57-.66.96-1.25.96Z"/><path class="cls-1" d="m37.25,70c-1.64,0-3.16-.66-4.29-1.85L6.56,40.28C.93,34.34-1.26,25.93.71,17.78,2.58,9.98,8.03,3.79,15.26,1.24c7.68-2.72,15.99-.88,21.99,4.79C43.25.36,51.56-1.48,59.24,1.24c7.24,2.56,12.68,8.74,14.56,16.55,1.96,8.15-.23,16.56-5.85,22.5l-26.4,27.87c-1.13,1.19-2.65,1.85-4.29,1.85ZM22.38,2.59c-2.09,0-4.2.35-6.26,1.08-6.41,2.27-11.23,7.77-12.9,14.71-1.76,7.29.19,14.81,5.21,20.11l26.4,27.88c.63.67,1.49,1.04,2.41,1.04s1.78-.37,2.41-1.04l26.4-27.88c5.02-5.3,6.97-12.82,5.21-20.11-1.67-6.95-6.5-12.45-12.9-14.71h0c-7.11-2.51-14.85-.57-20.18,5.06-.24.26-.58.4-.94.4h0c-.36,0-.7-.15-.94-.4-3.79-4.01-8.8-6.15-13.93-6.15Z"/></g></g></svg>